<svg xmlns="http://www.w3.org/2000/svg" viewBox="0 0 340.127 340.127"><path d="M306.114 45.35l-68.025-.295V36.62c0-20.226-18.548-36.62-41.45-36.62h-53.128c-22.902 0-41.473 16.394-41.473 36.62v8.73l-68.025.045v45.396h23.355c-.408 3.628-.68 7.301-.68 10.997v181.583c0 29.863 14.512 56.756 45.35 56.756h136.051c30.838 0 45.35-26.893 45.35-56.756V101.789c0-3.719-.159-7.392-.454-10.997h23.129V45.35zm-181.401-8.73c0-7.551 8.617-13.923 18.798-13.923h53.128c10.181 0 18.798 6.372 18.798 13.923v8.73h-90.701v-8.73h-.023zm136.051 246.729c0 17.415-4.308 34.058-22.675 34.058H102.038c-18.344 0-22.675-16.644-22.675-34.058v-181.56c0-3.764.249-7.46.771-10.997h179.882c.499 3.537.771 7.233.771 10.997v181.56h-.023zm-158.726 11.428h22.675V113.376h-22.675v181.401zm56.688 0h22.675V113.376h-22.675v181.401zm56.688 0h22.675V113.376h-22.675v181.401z"/></svg>