<svg viewBox="0 0 487.139 487.139"><path d="M204.87 232.439h1.2c104.4-1.1 89.2-140.4 89.2-140.4-4.3-93.1-82.2-92.3-89.8-92-7.7-.3-85.6-1.1-89.8 92 0-.1-15.2 139.3 89.2 140.4zM382.97 301.839c-7.3-11-18.1-19.2-34.4-25.1-47.2-18-75.5-36.5-75.5-36.5l-36.4 115-5 15.6-16.3-46.2c37.4-52.2-2.8-54.7-9.8-54.8h-.4c-7 .1-47.2 2.5-9.8 54.8l-16.3 46.2-5-15.6-36.4-115s-28.3 18.5-75.5 36.5c-52 18.9-48.8 61.7-49.8 141.9h275.7c-.3-3.4-.5-6.8-.5-10.3.1-55.1 41.9-100.6 95.4-106.5z"/><path d="M396.17 329.939c-43.4 0-78.7 35.2-78.7 78.6s35.2 78.6 78.7 78.6c43.4 0 78.6-35.2 78.6-78.6s-35.1-78.6-78.6-78.6zm38.4 89.3h-27.7v27.7h-21.3v-27.7h-27.7v-21.3h27.7v-27.7h21.3v27.7h27.7v21.3z"/></svg>